<svg xmlns="http://www.w3.org/2000/svg" viewBox="0 0 100 100">
  <defs>
    <style type="text/css">
      .item {
        fill: black;
      }

      @media (prefers-color-scheme: dark) {
        .item {
          fill: white;
        }
      }
    </style>
  </defs>

  <path d="m82.09762,0.2487l-64.19523,0a17.65369,17.65369 0 0 0 -17.65369,17.65369l0,64.19523a17.65369,17.65369 0 0 0 17.65369,17.65369l64.19523,0a17.65369,17.65369 0 0 0 17.65369,-17.65369l0,-64.19523a17.65369,17.65369 0 0 0 -17.65369,-17.65369zm-64.19523,9.62928l64.19523,0a8.0244,8.0244 0 0 1 8.0244,8.0244l0,27.28297l-19.83633,0a20.86345,20.86345 0 0 0 -40.55534,0l-19.85237,0l0,-27.28297a8.0244,8.0244 0 0 1 8.0244,-8.0244zm43.33178,40.12202a11.23417,11.23417 0 1 1 -11.23417,-11.23417a11.23417,11.23417 0 0 1 11.23417,11.23417zm20.86345,40.12202l-64.19523,0a8.0244,8.0244 0 0 1 -8.0244,-8.0244l0,-27.28297l19.83633,0a20.86345,20.86345 0 0 0 40.55534,0l19.85237,0l0,27.28297a8.0244,8.0244 0 0 1 -8.0244,8.0244z"/>
</svg>
