<svg xmlns="http://www.w3.org/2000/svg" viewBox="0 0 29 29">
  <defs>
    <style type="text/css">
      .item {
        fill: black;
      }

      @media (prefers-color-scheme: dark) {
        .item {
          fill: white;
        }
      }
    </style>
  </defs>

  <path d="M26.49 2.51s-8.979-.021-15.979 6.979c-.323.323-.605.673-.86 1.037-1.241-.099-3.143-.063-4.113.909-2.27 2.27-3.027 6.054-3.027 6.054l5.294-.756v1.462l3 3h1.462l-.757 5.295s3.784-.757 6.054-3.027c.971-.971 1.007-2.872.909-4.113.364-.255.714-.536 1.037-.86 7-7 6.98-15.98 6.98-15.98zm-9.98 7.98c0-1.105.895-2 2-2s2 .895 2 2-.895 2-2 2-2-.895-2-2z" class="item" />
  <path d="M8.558 22.206c-.919.919-2.084.316-2.084.316s-.568-1.2.316-2.084c.076-.076.169-.119.258-.171l-.615-.615c-.321.11-.624.284-.88.54-.898.898-.846 4.097-.846 4.097s3.2.051 4.097-.846c.256-.256.43-.559.54-.88l-.614-.614c-.053.088-.096.181-.172.257z" class="item" />
</svg>
